<svg width="640" height="640" viewBox="0 0 640 640" fill="none" xmlns="http://www.w3.org/2000/svg">
<path d="M320 576C461.4 576 576 461.4 576 320C576 178.6 461.4 64 320 64C178.6 64 64 178.6 64 320C64 461.4 178.6 576 320 576ZM331.3 188.7L435.3 292.7C439.9 297.3 441.2 304.2 438.8 310.1C436.4 316 430.5 320 424 320H368V416C368 433.7 353.7 448 336 448H304C286.3 448 272 433.7 272 416V320H216C209.5 320 203.7 316.1 201.2 310.1C198.7 304.1 200.1 297.2 204.7 292.7L308.7 188.7C314.9 182.5 325.1 182.5 331.3 188.7Z" fill="#276C96" fill-opacity="0.3"/>
</svg>
